<svg width="662" height="597" viewBox="0 0 662 597" fill="none" xmlns="http://www.w3.org/2000/svg">
<path d="M4.35757 589.635C5.81289 594.963 11.3116 598.102 16.6392 596.647C21.9669 595.191 25.106 589.693 23.6507 584.365L4.35757 589.635ZM598.423 3.29444C594.719 -0.802733 588.396 -1.12197 584.299 2.58141L517.531 62.9314C513.434 66.6348 513.115 72.9584 516.818 77.0556C520.522 81.1528 526.845 81.472 530.943 77.7686L590.291 24.1241L643.936 83.4729C647.639 87.5701 653.963 87.8893 658.06 84.1859C662.157 80.4825 662.476 74.1589 658.773 70.0618L598.423 3.29444ZM14.0041 587C23.6507 584.365 23.6525 584.371 23.654 584.377C23.6542 584.378 23.6555 584.383 23.656 584.384C23.657 584.388 23.6571 584.388 23.6565 584.386C23.6552 584.381 23.6507 584.364 23.6433 584.336C23.6286 584.279 23.602 584.176 23.5653 584.027C23.4918 583.73 23.3775 583.251 23.235 582.602C22.9498 581.303 22.5521 579.323 22.1414 576.746C21.3191 571.588 20.4488 564.062 20.3162 554.825C20.0507 536.335 22.7417 511.17 34.532 484.407C57.8316 431.518 118.058 369.436 270.257 342.345L266.752 322.655C109.954 350.564 42.9308 415.732 16.2293 476.343C3.0191 506.33 0.0219235 534.478 0.318249 555.112C0.466535 565.438 1.43969 573.928 2.39069 579.894C2.86653 582.88 3.33789 585.24 3.70013 586.89C3.8813 587.716 4.03533 588.364 4.14919 588.825C4.20613 589.055 4.25304 589.239 4.28831 589.374C4.30594 589.442 4.32066 589.498 4.33227 589.541C4.33808 589.563 4.34311 589.582 4.34733 589.597C4.34944 589.605 4.352 589.615 4.35306 589.619C4.35542 589.627 4.35757 589.635 14.0041 587ZM270.257 342.345C427.941 314.278 510.983 231.665 554.317 155.574C575.895 117.685 587.541 81.5867 593.801 54.9435C596.933 41.6118 598.725 30.6151 599.736 22.9011C600.241 19.043 600.552 16.0026 600.738 13.898C600.831 12.8455 600.893 12.0267 600.932 11.4563C600.952 11.171 600.966 10.9479 600.976 10.7886C600.98 10.7089 600.984 10.6453 600.987 10.5978C600.988 10.5741 600.989 10.5544 600.99 10.5388C600.99 10.531 600.991 10.5223 600.991 10.5184C600.991 10.5108 600.992 10.5042 591.004 10C581.017 9.49581 581.017 9.49125 581.017 9.48771C581.017 9.48789 581.018 9.48534 581.018 9.48568C581.017 9.48634 581.017 9.49103 581.017 9.49972C581.016 9.51709 581.014 9.55047 581.011 9.59961C581.005 9.69789 580.995 9.85924 580.98 10.0818C580.949 10.527 580.897 11.217 580.816 12.1372C580.653 13.9779 580.372 16.7382 579.905 20.302C578.971 27.4317 577.293 37.7632 574.331 50.369C568.403 75.6008 557.361 109.815 536.938 145.676C496.271 217.085 418.063 295.722 266.752 322.655L270.257 342.345Z" fill="black"/>
</svg>
