<svg width="8251" height="1112" viewBox="0 0 8251 1112" fill="none" xmlns="http://www.w3.org/2000/svg">
<path d="M0.407715 528.64C0.407715 437.886 29.7725 365.371 88.502 311.096C147.232 256.821 210.855 229.684 279.373 229.684C352.34 229.684 417.298 257.266 474.248 312.431C531.198 367.595 560.118 439.665 561.008 528.64C561.008 613.166 533.423 683.457 478.252 739.511C423.082 795.565 357.234 824.037 280.708 824.927C204.181 824.927 138.333 796.455 83.163 739.511C27.9928 682.567 0.407715 612.277 0.407715 528.64ZM448.888 516.628C448.888 466.802 432.426 423.65 399.502 387.17C366.577 350.69 326.535 332.005 279.373 331.116C236.661 331.116 198.397 348.466 164.583 383.166C130.769 417.866 113.418 462.354 112.528 516.628C112.528 576.242 129.435 625.623 163.249 664.772C197.063 703.921 236.216 723.495 280.708 723.495C325.2 723.495 364.353 703.921 398.167 664.772C431.981 625.623 448.888 576.242 448.888 516.628Z" fill="black"/>
<path d="M750.544 241.696C754.103 241.696 760.777 241.696 770.565 241.696C780.353 241.696 787.917 241.251 793.256 240.361C839.528 240.361 862.664 254.152 862.664 281.735V288.408L874.676 280.4C923.618 249.259 978.343 233.688 1038.85 233.688C1102.03 233.688 1159.43 259.936 1211.04 312.431C1262.65 364.926 1288.45 436.551 1288.45 527.305C1288.45 590.478 1273.77 645.642 1244.41 692.799C1215.04 739.956 1180.78 773.766 1141.63 794.23C1102.48 814.695 1061.99 824.927 1020.17 824.927C993.47 824.927 967.22 820.033 941.415 810.246C915.609 800.459 896.033 791.116 882.685 782.219L863.998 767.538C863.109 767.538 862.664 808.022 862.664 888.989V1011.77H946.754C959.211 1019.78 967.22 1026.9 970.779 1033.13C974.339 1039.36 976.118 1049.14 976.118 1062.49C976.118 1088.29 966.33 1104.75 946.754 1111.87H667.788C647.322 1105.64 637.089 1089.18 637.089 1062.49C637.089 1049.14 638.869 1039.36 642.428 1033.13C645.987 1026.9 654.441 1019.78 667.788 1011.77H750.544V343.127H709.166L667.788 341.793C647.322 335.564 637.089 319.104 637.089 292.412C637.089 279.065 638.869 269.278 642.428 263.05C645.987 256.822 654.441 249.704 667.788 241.696H750.544ZM1177.67 529.975C1177.67 481.928 1163.43 437.441 1134.96 396.512C1106.48 355.584 1064.66 335.12 1009.49 335.12C984.572 335.12 958.322 342.682 930.737 357.808C903.151 372.934 882.24 393.843 868.003 420.536L862.664 429.878V594.037C876.901 632.296 894.698 663.437 916.054 687.46C937.41 711.484 966.33 723.495 1002.81 723.495C1049.09 723.495 1089.57 705.255 1124.28 668.776C1158.98 632.296 1176.78 586.029 1177.67 529.975Z" fill="black"/>
<path d="M1365.87 289.742C1366.76 280.845 1367.2 275.061 1367.2 272.392C1367.2 269.723 1368.54 266.164 1371.21 261.715C1373.88 257.266 1376.55 254.152 1379.22 252.373C1381.89 250.593 1387.67 247.034 1396.57 241.696H1526.04V174.964L1527.38 106.899C1534.49 93.5524 1541.17 85.5446 1547.4 82.8754C1553.63 80.2061 1563.86 78.4266 1578.1 77.5369H1584.77C1610.58 77.5369 1627.48 86.4344 1635.49 104.229C1637.27 108.678 1638.16 132.701 1638.16 176.299V241.696H1873.08C1873.97 242.585 1876.64 244.365 1881.09 247.034C1885.54 249.703 1888.65 251.928 1890.43 253.707C1892.21 255.487 1893.99 258.156 1895.77 261.715C1897.55 265.274 1899.33 269.278 1901.11 273.727C1902.89 278.175 1903.33 284.404 1902.44 292.411C1902.44 297.75 1902.44 302.644 1902.44 307.092C1902.44 311.541 1901.11 315.1 1898.44 317.769C1895.77 320.439 1894.43 323.108 1894.43 325.777C1894.43 328.446 1892.66 330.671 1889.1 332.45C1885.54 334.23 1883.76 335.564 1883.76 336.454C1883.76 337.344 1881.53 338.234 1877.08 339.123L1873.08 341.793L1755.62 343.127H1638.16V484.597C1638.16 495.274 1638.16 510.845 1638.16 531.309C1638.16 551.774 1637.72 567.344 1636.83 578.021C1636.83 625.178 1642.61 661.213 1654.18 686.126C1665.75 711.039 1689.77 723.495 1726.25 723.495C1778.76 723.495 1809.9 688.35 1819.69 618.06C1820.58 602.044 1825.03 590.923 1833.04 584.694C1840.15 577.576 1854.39 574.017 1875.75 574.017H1886.43C1906.89 574.017 1920.69 581.135 1927.8 595.371C1929.58 599.82 1930.47 607.828 1930.47 619.395C1930.47 676.339 1908.23 724.83 1863.74 764.869C1819.24 804.907 1767.63 824.927 1708.9 824.927C1659.07 824.927 1617.69 809.356 1584.77 778.215C1551.85 747.074 1532.71 703.031 1527.38 646.087C1526.49 640.749 1526.04 587.808 1526.04 487.267V343.127H1460.64H1428.6C1404.58 343.127 1388.12 340.013 1379.22 333.785C1370.32 327.557 1365.87 312.876 1365.87 289.742Z" fill="black"/>
<path d="M2302.87 98.8905C2302.87 98.8905 2302.87 89.5482 2302.87 70.8634C2302.87 52.1787 2309.99 35.7183 2324.23 21.4823C2338.47 7.24632 2357.15 0.128324 2380.29 0.128324C2400.75 0.128324 2418.55 6.80145 2433.68 20.1477C2448.81 33.4939 2456.37 49.9543 2456.37 69.5288C2456.37 89.1033 2448.81 105.564 2433.68 118.91C2418.55 132.256 2400.75 139.374 2380.29 140.264C2358.04 140.264 2339.8 133.591 2325.56 120.245L2302.87 98.8905ZM2581.84 715.487C2608.53 715.487 2626.33 718.601 2635.23 724.83C2644.13 731.058 2649.02 744.849 2649.91 766.203C2649.91 774.211 2649.91 779.549 2649.91 782.218C2649.91 784.888 2649.02 788.447 2647.24 792.895C2645.46 797.344 2642.35 801.348 2637.9 804.907C2633.45 808.466 2627.66 812.025 2620.55 815.584H2158.72C2139.14 809.356 2129.35 795.12 2129.35 772.876V766.203C2129.35 759.085 2129.35 754.191 2129.35 751.522C2129.35 748.853 2130.24 744.849 2132.02 739.51C2133.8 734.172 2136.92 729.723 2141.37 726.164C2145.82 722.605 2151.6 719.046 2158.72 715.487H2344.25V343.127H2256.16L2169.4 341.792C2149.82 335.564 2140.03 319.104 2140.03 292.411C2140.03 270.167 2144.93 255.931 2154.71 249.703C2164.5 243.475 2185.41 240.361 2217.45 240.361C2223.68 240.361 2235.69 240.361 2253.49 240.361C2271.28 240.361 2286.85 240.806 2300.2 241.695H2427C2428.78 243.475 2432.34 246.144 2437.68 249.703C2443.02 253.262 2446.14 255.487 2447.03 256.376C2447.92 257.266 2449.7 259.49 2452.37 263.049C2455.03 266.608 2456.37 271.502 2456.37 277.73C2456.37 283.958 2456.37 290.632 2456.37 297.75C2456.37 304.868 2456.81 316.434 2457.7 332.45C2457.7 340.458 2457.7 362.256 2457.7 397.846C2457.7 433.436 2457.26 465.912 2456.37 495.274V715.487H2537.79H2581.84Z" fill="black"/>
<path d="M3122.42 824.927C3037.88 824.927 2966.69 795.565 2908.85 736.842C2851.01 678.118 2822.09 608.718 2822.09 528.64C2822.09 457.46 2845.68 392.953 2892.84 335.119C2923.98 297.75 2960.02 271.057 3000.95 255.042C3041.89 239.026 3074.36 231.019 3098.39 231.019C3100.17 230.129 3109.07 229.684 3125.09 229.684H3151.78C3229.2 229.684 3282.59 243.475 3311.95 271.057C3330.64 289.742 3339.98 311.986 3339.98 337.789C3339.98 359.143 3333.31 376.048 3319.96 388.504C3306.61 400.961 3290.15 407.634 3270.57 408.524C3251 408.524 3234.54 401.851 3221.19 388.504C3207.84 375.158 3201.17 359.143 3201.17 340.458V333.785L3187.82 332.45C3186.93 332.45 3180.7 332.45 3169.13 332.45C3157.56 332.45 3147.33 332.005 3138.43 331.116C3117.97 331.116 3101.5 332.005 3089.05 333.785C3045.44 342.682 3008.96 364.481 2979.6 399.181C2950.23 433.882 2935.55 477.479 2935.55 529.975C2935.55 585.139 2956.91 630.961 2999.62 667.441C3042.33 703.921 3093.05 722.606 3151.78 723.495C3176.7 723.495 3196.27 716.822 3210.51 703.476C3224.75 690.13 3235.43 675.449 3242.54 659.433C3249.66 643.418 3255.45 633.631 3259.9 630.072C3267.01 624.733 3280.36 622.064 3299.94 622.064C3316.85 622.064 3327.08 622.954 3330.64 624.733C3347.55 630.961 3356 642.973 3356 660.768C3356 670.555 3351.99 683.457 3343.99 699.472C3335.98 715.488 3323.52 733.727 3306.61 754.192C3289.71 774.656 3265.24 791.116 3233.2 803.573C3201.17 816.029 3164.24 823.147 3122.42 824.927Z" fill="black"/>
<path d="M3602.93 408.524C3584.24 408.524 3568.23 401.851 3554.88 388.504C3541.53 375.158 3534.41 358.253 3533.52 337.789C3533.52 266.609 3594.48 231.019 3716.38 231.019C3767.11 231.019 3796.03 231.464 3803.14 232.353C3862.76 243.03 3910.37 264.384 3945.96 296.415C3981.56 328.446 4002.47 365.816 4008.7 408.524C4009.59 412.973 4010.03 464.578 4010.03 563.34V708.814C4023.38 710.594 4038.51 711.929 4055.41 712.818C4072.32 713.708 4084.33 714.598 4091.45 715.488C4098.57 716.377 4106.14 718.157 4114.14 720.826C4122.15 723.495 4127.49 728.834 4130.16 736.842C4132.83 744.849 4134.17 754.637 4134.17 766.203C4134.17 790.227 4126.16 805.797 4110.14 812.915C4106.58 814.695 4088.78 815.584 4056.75 815.584C4021.16 815.584 3994.46 813.805 3976.66 810.246C3958.87 806.687 3946.85 802.683 3940.62 798.234C3934.4 793.786 3923.72 783.998 3908.59 768.873L3895.24 776.88C3840.96 808.911 3778.67 824.927 3708.38 824.927C3646.09 824.927 3595.81 804.907 3557.55 764.869C3519.28 724.83 3499.71 679.453 3498.82 628.737C3498.82 592.257 3512.61 560.671 3540.2 533.979C3567.78 507.286 3602.93 487.712 3645.64 475.255C3688.35 462.799 3730.18 453.011 3771.11 445.893C3812.04 438.775 3852.09 435.661 3891.24 436.551H3897.91V429.878C3897.91 407.634 3888.12 387.615 3868.55 369.82C3848.97 352.025 3823.17 340.013 3791.13 333.785C3783.12 332.895 3763.99 332.45 3733.74 332.45C3702.59 332.45 3685.24 332.895 3681.68 333.785H3673.67L3672.34 339.123C3672.34 343.572 3672.34 346.241 3672.34 347.131C3672.34 348.021 3671.45 351.135 3669.67 356.473C3667.89 361.812 3667 365.371 3667 367.15C3667 368.93 3665.22 372.044 3661.66 376.493C3658.1 380.942 3655.88 384.501 3654.99 387.17C3654.1 389.839 3650.98 392.508 3645.64 395.178C3640.3 397.847 3636.74 400.071 3634.96 401.851C3633.18 403.63 3628.29 404.965 3620.28 405.855C3612.27 406.744 3606.49 407.634 3602.93 408.524ZM3610.94 630.072C3610.94 652.315 3622.06 673.224 3644.31 692.799C3666.55 712.373 3696.36 722.606 3733.74 723.495C3773.78 723.495 3808.48 715.932 3837.85 700.807C3867.21 685.681 3885.9 665.217 3893.91 639.414C3895.69 634.075 3897.02 615.391 3897.91 583.36V535.313H3887.23C3813.38 537.093 3748.86 546.435 3693.69 563.34C3638.52 580.246 3610.94 602.489 3610.94 630.072Z" fill="black"/>
<path d="M4203.57 52.1787C4203.57 26.3759 4213.36 9.91557 4232.94 2.79757H4236.94C4239.61 2.79757 4243.17 2.79757 4247.62 2.79757C4252.07 2.79757 4257.85 2.79757 4264.97 2.79757C4272.09 2.79757 4279.21 2.79757 4286.33 2.79757C4293.45 2.79757 4302.35 2.3527 4313.02 1.46295C4323.7 0.573199 4333.49 0.573199 4342.39 1.46295C4351.29 2.3527 4361.96 2.3527 4374.42 1.46295H4511.9C4528.81 13.0297 4538.6 24.1516 4541.27 34.8286V715.487H4738.81C4751.27 723.495 4759.28 730.613 4762.84 736.841C4766.4 743.069 4768.18 752.857 4768.18 766.203C4768.18 791.116 4758.39 807.576 4738.81 815.584H4232.94C4213.36 808.466 4203.57 794.675 4203.57 774.211V766.203C4203.57 751.967 4204.91 742.18 4207.58 736.841C4210.25 731.503 4218.7 724.385 4232.94 715.487H4429.15V102.894H4330.38L4232.94 101.56C4213.36 93.552 4203.57 79.7609 4203.57 60.1864V52.1787Z" fill="black"/>
<path d="M5705.18 408.524C5686.49 408.524 5670.48 401.851 5657.13 388.504C5643.78 375.158 5636.66 358.253 5635.77 337.789C5635.77 266.609 5696.73 231.019 5818.63 231.019C5869.36 231.019 5898.28 231.464 5905.39 232.353C5965.01 243.03 6012.62 264.384 6048.21 296.415C6083.81 328.446 6104.72 365.816 6110.95 408.524C6111.84 412.973 6112.28 464.578 6112.28 563.34V708.814C6125.63 710.594 6140.76 711.929 6157.66 712.818C6174.57 713.708 6186.58 714.598 6193.7 715.488C6200.82 716.377 6208.39 718.157 6216.39 720.826C6224.4 723.495 6229.74 728.834 6232.41 736.842C6235.08 744.849 6236.42 754.637 6236.42 766.203C6236.42 790.227 6228.41 805.797 6212.39 812.915C6208.83 814.695 6191.03 815.584 6159 815.584C6123.41 815.584 6096.71 813.805 6078.91 810.246C6061.12 806.687 6049.1 802.683 6042.87 798.234C6036.65 793.786 6025.97 783.998 6010.84 768.873L5997.49 776.88C5943.21 808.911 5880.92 824.927 5810.63 824.927C5748.34 824.927 5698.06 804.907 5659.8 764.869C5621.53 724.83 5601.96 679.453 5601.07 628.737C5601.07 592.257 5614.86 560.671 5642.45 533.979C5670.03 507.286 5705.18 487.712 5747.89 475.255C5790.6 462.799 5832.43 453.011 5873.36 445.893C5914.29 438.775 5954.34 435.661 5993.49 436.551H6000.16V429.878C6000.16 407.634 5990.37 387.615 5970.8 369.82C5951.22 352.025 5925.42 340.013 5893.38 333.785C5885.37 332.895 5866.24 332.45 5835.99 332.45C5804.84 332.45 5787.49 332.895 5783.93 333.785H5775.92L5774.59 339.123C5774.59 343.572 5774.59 346.241 5774.59 347.131C5774.59 348.021 5773.7 351.135 5771.92 356.473C5770.14 361.812 5769.25 365.371 5769.25 367.15C5769.25 368.93 5767.47 372.044 5763.91 376.493C5760.35 380.942 5758.13 384.501 5757.24 387.17C5756.35 389.839 5753.23 392.508 5747.89 395.178C5742.55 397.847 5738.99 400.071 5737.21 401.851C5735.43 403.63 5730.54 404.965 5722.53 405.855C5714.52 406.744 5708.74 407.634 5705.18 408.524ZM5713.19 630.072C5713.19 652.315 5724.31 673.224 5746.56 692.799C5768.8 712.373 5798.61 722.606 5835.99 723.495C5876.03 723.495 5910.73 715.932 5940.1 700.807C5969.46 685.681 5988.15 665.217 5996.16 639.414C5997.94 634.075 5999.27 615.391 6000.16 583.36V535.313H5989.48C5915.63 537.093 5851.11 546.435 5795.94 563.34C5740.77 580.246 5713.19 602.489 5713.19 630.072Z" fill="black"/>
<path d="M6284.47 292.411C6284.47 271.057 6289.36 257.266 6299.15 251.038C6308.94 244.81 6328.07 241.251 6356.54 240.361C6361.88 240.361 6372.12 240.361 6387.24 240.361C6402.37 240.361 6415.27 240.806 6425.95 241.695H6535.4C6548.75 249.703 6556.76 256.821 6559.43 263.049C6562.1 269.278 6563.43 279.065 6563.43 292.411C6563.43 295.97 6563.43 300.419 6563.43 305.757C6563.43 311.096 6560.32 318.214 6554.09 327.111C6547.86 336.009 6538.52 341.347 6526.06 343.127C6519.83 343.127 6516.72 343.572 6516.72 344.461L6550.08 391.173C6572.33 420.535 6583.9 435.216 6584.79 435.216L6648.86 344.461C6648.86 343.572 6645.74 343.127 6639.51 343.127C6625.28 342.237 6615.04 337.788 6608.81 329.781C6602.58 321.773 6599.03 313.32 6598.14 304.423L6599.47 292.411C6599.47 268.388 6607.48 252.817 6623.5 245.699C6628.84 243.03 6667.54 241.695 6739.62 241.695H6850.41C6851.3 242.585 6853.96 244.365 6858.41 247.034C6862.86 249.703 6865.98 251.928 6867.76 253.707C6869.54 255.487 6871.32 258.156 6873.1 261.715C6874.88 265.274 6876.66 269.278 6878.44 273.726C6880.22 278.175 6880.66 284.403 6879.77 292.411C6879.77 314.655 6874.88 328.446 6865.09 333.784C6855.3 339.123 6839.28 342.237 6817.04 343.127H6805.02H6760.98L6696.91 429.877C6653.31 487.711 6631.5 517.518 6631.5 519.297C6630.61 519.297 6636.84 528.195 6650.19 545.99C6663.54 563.785 6681.78 587.808 6704.92 618.06L6778.33 714.153L6823.71 715.487H6842.4C6861.08 715.487 6874.88 718.601 6883.77 724.83C6892.67 731.058 6897.57 744.849 6898.46 766.203C6898.46 791.116 6888.67 807.576 6869.09 815.584H6642.18C6622.61 808.466 6612.82 794.675 6612.82 774.211V766.203C6612.82 756.416 6613.26 749.298 6614.15 744.849C6615.04 740.4 6618.6 734.617 6624.83 727.499C6631.06 720.381 6641.29 716.377 6655.53 715.487C6665.32 715.487 6670.21 715.042 6670.21 714.153L6583.45 586.029L6500.7 714.153C6505.15 715.042 6510.49 715.487 6516.72 715.487C6530.95 716.377 6541.63 719.936 6548.75 726.164C6555.87 732.392 6559.43 738.176 6559.43 743.514C6559.43 748.853 6559.87 756.416 6560.76 766.203C6560.76 775.1 6560.76 781.329 6560.76 784.888C6560.76 788.447 6558.09 793.785 6552.75 800.903C6547.41 808.021 6540.74 812.915 6532.73 815.584H6305.82C6286.25 808.466 6276.46 794.675 6276.46 774.211V766.203C6276.46 757.305 6276.46 751.522 6276.46 748.853C6276.46 746.184 6277.35 742.625 6279.13 738.176C6280.91 733.727 6284.02 730.168 6288.47 727.499C6292.92 724.83 6298.7 720.826 6305.82 715.487H6393.92L6465.99 618.06C6513.16 553.108 6536.74 520.187 6536.74 519.297L6403.26 343.127H6357.88H6341.86C6320.51 343.127 6305.82 340.458 6297.81 335.119C6289.81 329.781 6285.36 315.545 6284.47 292.411Z" fill="black"/>
<path d="M7208.12 98.8905C7208.12 98.8905 7208.12 89.5482 7208.12 70.8634C7208.12 52.1787 7215.24 35.7183 7229.48 21.4823C7243.72 7.24632 7262.4 0.128324 7285.54 0.128324C7306 0.128324 7323.8 6.80145 7338.93 20.1477C7354.06 33.4939 7361.62 49.9543 7361.62 69.5288C7361.62 89.1033 7354.06 105.564 7338.93 118.91C7323.8 132.256 7306 139.374 7285.54 140.264C7263.29 140.264 7245.05 133.591 7230.81 120.245L7208.12 98.8905ZM7487.09 715.487C7513.78 715.487 7531.58 718.601 7540.48 724.83C7549.38 731.058 7554.27 744.849 7555.16 766.203C7555.16 774.211 7555.16 779.549 7555.16 782.218C7555.16 784.888 7554.27 788.447 7552.49 792.895C7550.71 797.344 7547.6 801.348 7543.15 804.907C7538.7 808.466 7532.91 812.025 7525.8 815.584H7063.97C7044.39 809.356 7034.6 795.12 7034.6 772.876V766.203C7034.6 759.085 7034.6 754.191 7034.6 751.522C7034.6 748.853 7035.49 744.849 7037.27 739.51C7039.05 734.172 7042.17 729.723 7046.62 726.164C7051.07 722.605 7056.85 719.046 7063.97 715.487H7249.5V343.127H7161.41L7074.65 341.792C7055.07 335.564 7045.28 319.104 7045.28 292.411C7045.28 270.167 7050.18 255.931 7059.96 249.703C7069.75 243.475 7090.66 240.361 7122.7 240.361C7128.93 240.361 7140.94 240.361 7158.74 240.361C7176.53 240.361 7192.1 240.806 7205.45 241.695H7332.25C7334.03 243.475 7337.59 246.144 7342.93 249.703C7348.27 253.262 7351.39 255.487 7352.28 256.376C7353.17 257.266 7354.95 259.49 7357.62 263.049C7360.28 266.608 7361.62 271.502 7361.62 277.73C7361.62 283.958 7361.62 290.632 7361.62 297.75C7361.62 304.868 7362.06 316.434 7362.95 332.45C7362.95 340.458 7362.95 362.256 7362.95 397.846C7362.95 433.436 7362.51 465.912 7361.62 495.274V715.487H7443.04H7487.09Z" fill="black"/>
<path d="M7735.35 393.843C7735.35 354.694 7751.37 319.549 7783.4 288.408C7815.44 257.266 7869.27 238.137 7944.91 231.019C7946.69 231.019 7953.81 231.019 7966.27 231.019C7978.72 231.019 7988.96 230.574 7996.97 229.684C8028.11 230.574 8053.03 232.798 8071.71 236.357C8090.4 239.916 8103.3 243.475 8110.42 247.034C8117.54 250.593 8121.99 252.373 8123.77 252.373L8135.78 240.361C8142.9 233.243 8154.02 229.684 8169.15 229.684C8198.52 229.684 8213.2 249.703 8213.2 289.742C8213.2 294.191 8213.2 300.864 8213.2 309.762C8213.2 318.659 8212.75 324.887 8211.86 328.446V369.82C8211.86 391.174 8208.75 405.855 8202.52 413.862C8196.29 421.87 8180.72 425.874 8155.8 425.874C8135.34 425.874 8121.1 422.76 8113.09 416.532C8105.08 410.303 8101.08 403.185 8101.08 395.178C8101.08 387.17 8099.74 378.272 8097.07 368.485C8094.4 358.698 8086.4 351.135 8073.05 345.796C8056.14 336.009 8025.89 331.116 7982.28 331.116C7939.57 331.116 7904.42 336.899 7876.84 348.466C7849.25 360.032 7835.46 375.158 7835.46 393.843C7835.46 423.205 7872.83 443.224 7947.58 453.901C8033 468.137 8089.06 479.259 8115.76 487.267C8205.63 520.187 8250.57 572.683 8250.57 644.752V655.429C8250.57 697.248 8230.55 735.952 8190.51 771.542C8150.46 807.132 8087.29 824.927 8000.97 824.927C7978.72 824.927 7957.81 823.592 7938.24 820.923C7918.66 818.254 7903.09 814.695 7891.52 810.246C7879.95 805.797 7869.27 801.793 7859.49 798.234C7849.7 794.675 7843.02 791.116 7839.46 787.557C7835.9 783.998 7833.24 782.219 7831.46 782.219C7829.68 784.888 7827.45 788.447 7824.78 792.896C7822.11 797.345 7820.33 800.459 7819.44 802.238C7818.55 804.018 7817.22 806.242 7815.44 808.911C7813.66 811.581 7811.88 813.805 7810.1 815.584C7808.32 817.364 7806.54 818.699 7804.76 819.588C7802.98 820.478 7800.76 821.368 7798.09 822.258C7795.42 823.147 7792.75 823.592 7790.08 823.592C7787.41 823.592 7783.4 824.037 7778.07 824.927C7760.27 824.927 7748.7 819.588 7743.36 808.911C7738.02 798.234 7734.91 781.774 7734.02 759.53C7734.02 755.081 7734.02 747.519 7734.02 736.842C7734.02 726.165 7734.46 717.712 7735.35 711.484C7735.35 664.327 7735.8 636.745 7736.69 628.737C7737.58 620.729 7741.14 613.611 7747.37 607.383C7755.37 599.375 7770.5 595.371 7792.75 595.371C7810.54 595.371 7822.56 597.151 7828.79 600.71C7835.02 604.269 7841.69 614.056 7848.81 630.072C7858.6 658.544 7873.72 680.787 7894.19 696.803C7914.66 712.818 7945.36 721.716 7986.29 723.495C8019.21 723.495 8047.24 720.826 8070.38 715.488C8093.51 710.149 8110.42 703.476 8121.1 695.468C8131.78 687.46 8139.79 679.008 8145.12 670.11C8150.46 661.213 8152.69 652.76 8151.8 644.752C8151.8 619.839 8134.89 601.155 8101.08 588.698C8067.26 576.242 8023.22 565.565 7968.94 556.667C7914.66 547.77 7878.17 540.207 7859.49 533.979C7818.55 519.743 7787.85 500.168 7767.39 475.255C7746.92 450.342 7736.24 423.205 7735.35 393.843Z" fill="black"/>
</svg>
