<svg width="8251" height="937" viewBox="0 0 8251 937" fill="none" xmlns="http://www.w3.org/2000/svg">
<path d="M90.2395 203.648C93.0622 203.648 98.3548 203.648 106.117 203.648C113.88 203.648 119.878 203.273 124.112 202.523C160.808 202.523 179.156 214.145 179.156 237.387V243.01L188.682 236.262C227.495 210.021 270.895 196.9 318.881 196.9C368.985 196.9 414.502 219.018 455.431 263.254C496.361 307.489 516.826 367.845 516.826 444.32C516.826 497.553 505.182 544.038 481.894 583.775C458.607 623.512 431.438 652.003 400.388 669.248C369.338 686.492 337.229 695.114 304.062 695.114C282.891 695.114 262.074 690.991 241.609 682.743C221.144 674.496 205.619 666.623 195.034 659.126L180.214 646.755C179.509 646.755 179.156 680.869 179.156 749.097V852.563H245.843C255.723 859.311 262.074 865.309 264.896 870.558C267.719 875.806 269.131 884.053 269.131 895.3C269.131 917.043 261.368 930.913 245.843 936.911H24.6108C8.38002 931.663 0.264648 917.792 0.264648 895.3C0.264648 884.053 1.67602 875.806 4.49876 870.558C7.3215 865.309 14.0255 859.311 24.6108 852.563H90.2395V289.12H57.4251L24.6108 287.996C8.38002 282.747 0.264648 268.877 0.264648 246.384C0.264648 235.138 1.67602 226.89 4.49876 221.642C7.3215 216.394 14.0255 210.396 24.6108 203.648H90.2395ZM428.968 446.57C428.968 406.083 417.677 368.595 395.095 334.106C372.513 299.617 339.346 282.373 295.594 282.373C275.835 282.373 255.017 288.745 233.141 301.491C211.264 314.237 194.681 331.857 183.39 354.349L179.156 362.222V500.552C190.447 532.792 204.56 559.033 221.497 579.277C238.433 599.52 261.368 609.642 290.301 609.642C326.997 609.642 359.105 594.272 386.627 563.532C414.149 532.792 428.262 493.804 428.968 446.57Z" fill="black"/>
<path d="M897.896 602.894C920.478 602.894 935.297 605.144 942.354 609.642C949.411 614.141 953.292 626.137 953.998 645.631C953.998 666.624 946.588 680.494 931.769 687.242H601.508C585.277 681.994 577.162 668.123 577.162 645.631C577.162 633.635 578.573 625.012 581.396 619.764C584.219 614.516 590.923 608.893 601.508 602.894H705.244V289.121H653.376L601.508 287.996C585.277 282.748 577.162 268.877 577.162 246.385C577.162 234.388 578.573 225.766 581.396 220.518C584.219 215.27 590.923 209.646 601.508 203.648H770.873C782.164 212.646 788.868 219.018 790.985 222.767C793.102 226.516 794.16 234.388 794.16 246.385V253.132V273.376C842.147 222.392 900.366 196.901 968.817 196.901C998.456 196.901 1022.1 204.398 1039.74 219.393C1057.38 234.388 1066.55 252.758 1067.26 274.501C1067.26 290.245 1062.32 303.741 1052.44 314.987C1042.56 326.234 1030.21 331.857 1015.39 331.857C1008.34 331.857 1001.98 330.732 996.339 328.483C990.693 326.234 986.106 323.61 982.578 320.611C979.05 317.612 975.874 313.863 973.051 309.364C970.229 304.866 968.464 301.117 967.759 298.118C967.053 295.119 965.994 291.745 964.583 287.996L962.466 282.373C934.239 286.122 911.657 292.12 894.72 300.367C826.975 334.856 793.102 400.46 793.102 497.179C793.102 503.926 793.102 511.049 793.102 518.547C793.102 526.044 793.454 530.918 794.16 533.167V602.894H861.906H897.896Z" fill="black"/>
<path d="M1321.31 83.3122C1321.31 83.3122 1321.31 75.4398 1321.31 59.6949C1321.31 43.95 1326.95 30.0794 1338.24 18.0833C1349.53 6.08718 1364.35 0.0891215 1382.7 0.0891215C1398.93 0.0891215 1413.05 5.71231 1425.04 16.9587C1437.04 28.205 1443.04 42.0756 1443.04 58.5702C1443.04 75.0649 1437.04 88.9354 1425.04 100.182C1413.05 111.428 1398.93 117.426 1382.7 118.176C1365.06 118.176 1350.59 112.553 1339.3 101.306L1321.31 83.3122ZM1542.54 602.894C1563.71 602.894 1577.82 605.519 1584.88 610.767C1591.94 616.015 1595.82 627.636 1596.52 645.631C1596.52 652.378 1596.52 656.877 1596.52 659.126C1596.52 661.376 1595.82 664.375 1594.41 668.123C1593 671.872 1590.53 675.246 1587 678.245C1583.47 681.244 1578.88 684.243 1573.24 687.242H1206.99C1191.46 681.994 1183.7 669.998 1183.7 651.254V645.631C1183.7 639.633 1183.7 635.509 1183.7 633.26C1183.7 631.01 1184.4 627.636 1185.82 623.138C1187.23 618.639 1189.7 614.891 1193.22 611.892C1196.75 608.892 1201.34 605.893 1206.99 602.894H1354.12V289.121H1284.26L1215.45 287.996C1199.93 282.748 1192.17 268.877 1192.17 246.385C1192.17 227.641 1196.05 215.645 1203.81 210.396C1211.57 205.148 1228.16 202.524 1253.56 202.524C1258.5 202.524 1268.03 202.524 1282.14 202.524C1296.25 202.524 1308.6 202.899 1319.19 203.648H1419.75C1421.16 205.148 1423.98 207.397 1428.22 210.396C1432.45 213.395 1434.92 215.27 1435.63 216.019C1436.33 216.769 1437.74 218.644 1439.86 221.643C1441.98 224.642 1443.04 228.765 1443.04 234.014C1443.04 239.262 1443.04 244.885 1443.04 250.883C1443.04 256.881 1443.39 266.628 1444.1 280.124C1444.1 286.871 1444.1 305.241 1444.1 335.231C1444.1 365.221 1443.74 392.587 1443.04 417.329V602.894H1507.61H1542.54Z" fill="black"/>
<path d="M1757.42 203.648C1760.95 203.648 1766.59 203.648 1774.36 203.648C1782.12 203.648 1788.12 203.274 1792.35 202.524C1828.34 202.524 1846.34 214.895 1846.34 239.637C1846.34 243.386 1847.04 245.26 1848.45 245.26C1849.16 245.26 1854.45 241.511 1864.33 234.014C1874.21 226.516 1889.38 218.644 1909.85 210.396C1930.31 202.149 1953.25 198.025 1978.65 198.025C2010.41 198.025 2036.16 202.899 2055.92 212.646C2084.15 228.39 2102.5 250.133 2110.97 277.874C2119.44 305.615 2124.02 343.103 2124.73 390.338C2124.73 396.336 2124.73 406.083 2124.73 419.579C2124.73 433.074 2124.38 443.571 2123.67 451.068V465.689V602.894H2190.36C2200.24 609.642 2206.59 615.64 2209.41 620.889C2212.23 626.137 2213.64 634.384 2213.64 645.631C2213.64 667.374 2205.88 681.244 2190.36 687.242H1989.24C1973.71 681.244 1965.95 669.623 1965.95 652.378V645.631V637.758C1965.95 622.763 1971.95 612.266 1983.94 606.268C1988.18 604.019 1997.35 602.894 2011.47 602.894H2034.75V476.935C2034.75 464.939 2034.75 449.194 2034.75 429.7C2034.75 410.207 2035.11 396.711 2035.81 389.213C2035.81 347.977 2031.93 319.861 2024.17 304.866C2016.41 289.871 1997.7 282.373 1968.07 282.373C1943.37 282.373 1920.08 289.871 1898.2 304.866C1876.33 319.861 1860.1 344.978 1849.51 380.216L1847.39 391.463L1846.34 497.179V602.894H1913.02C1922.9 609.642 1929.25 615.64 1932.08 620.889C1934.9 626.137 1936.31 634.384 1936.31 645.631C1936.31 667.374 1928.55 681.244 1913.02 687.242H1691.79C1675.56 681.994 1667.44 668.123 1667.44 645.631C1667.44 634.384 1668.86 626.137 1671.68 620.889C1674.5 615.64 1681.21 609.642 1691.79 602.894H1757.42V289.121H1724.6L1691.79 287.996C1675.56 282.748 1667.44 268.877 1667.44 246.385C1667.44 235.138 1668.86 226.891 1671.68 221.643C1674.5 216.394 1681.21 210.396 1691.79 203.648H1757.42Z" fill="black"/>
<path d="M2526.97 695.114C2459.93 695.114 2403.47 670.372 2357.61 620.888C2311.74 571.404 2288.8 512.923 2288.8 445.445C2288.8 385.464 2307.5 331.107 2344.9 282.373C2369.6 250.883 2398.18 228.39 2430.64 214.894C2463.1 201.399 2488.86 194.651 2507.92 194.651C2509.33 193.901 2516.38 193.526 2529.09 193.526H2550.26C2611.65 193.526 2653.99 205.148 2677.28 228.39C2692.1 244.135 2699.51 262.879 2699.51 284.622C2699.51 302.616 2694.22 316.861 2683.63 327.358C2673.05 337.855 2659.99 343.478 2644.47 344.228C2628.94 344.228 2615.89 338.604 2605.3 327.358C2594.72 316.112 2589.42 302.616 2589.42 286.871V281.248L2578.84 280.123C2578.13 280.123 2573.19 280.123 2564.02 280.123C2554.84 280.123 2546.73 279.748 2539.67 278.999C2523.44 278.999 2510.39 279.748 2500.51 281.248C2465.93 288.746 2436.99 307.115 2413.71 336.355C2390.42 365.596 2378.78 402.334 2378.78 446.57C2378.78 493.055 2395.71 531.667 2429.58 562.407C2463.46 593.147 2503.68 608.892 2550.26 609.642C2570.02 609.642 2585.54 604.019 2596.83 592.772C2608.12 581.526 2616.59 569.155 2622.24 555.659C2627.88 542.164 2632.47 533.916 2636 530.917C2641.64 526.419 2652.23 524.169 2667.75 524.169C2681.16 524.169 2689.28 524.919 2692.1 526.419C2705.51 531.667 2712.21 541.789 2712.21 556.784C2712.21 565.031 2709.04 575.903 2702.68 589.398C2696.33 602.894 2686.45 618.264 2673.05 635.509C2659.64 652.753 2640.23 666.623 2614.83 677.12C2589.42 687.617 2560.14 693.615 2526.97 695.114Z" fill="black"/>
<path d="M2988.49 83.3122C2988.49 83.3122 2988.49 75.4398 2988.49 59.6949C2988.49 43.95 2994.13 30.0794 3005.42 18.0833C3016.71 6.08718 3031.53 0.0891215 3049.88 0.0891215C3066.11 0.0891215 3080.23 5.71231 3092.22 16.9587C3104.22 28.205 3110.22 42.0756 3110.22 58.5702C3110.22 75.0649 3104.22 88.9354 3092.22 100.182C3080.23 111.428 3066.11 117.426 3049.88 118.176C3032.24 118.176 3017.77 112.553 3006.48 101.306L2988.49 83.3122ZM3209.72 602.894C3230.89 602.894 3245 605.519 3252.06 610.767C3259.12 616.015 3263 627.636 3263.7 645.631C3263.7 652.378 3263.7 656.877 3263.7 659.126C3263.7 661.376 3263 664.375 3261.59 668.123C3260.18 671.872 3257.71 675.246 3254.18 678.245C3250.65 681.244 3246.06 684.243 3240.42 687.242H2874.17C2858.64 681.994 2850.88 669.998 2850.88 651.254V645.631C2850.88 639.633 2850.88 635.509 2850.88 633.26C2850.88 631.01 2851.58 627.636 2852.99 623.138C2854.41 618.639 2856.88 614.891 2860.4 611.892C2863.93 608.892 2868.52 605.893 2874.17 602.894H3021.3V289.121H2951.44L2882.63 287.996C2867.11 282.748 2859.35 268.877 2859.35 246.385C2859.35 227.641 2863.23 215.645 2870.99 210.396C2878.75 205.148 2895.34 202.524 2920.74 202.524C2925.68 202.524 2935.21 202.524 2949.32 202.524C2963.43 202.524 2975.78 202.899 2986.37 203.648H3086.93C3088.34 205.148 3091.16 207.397 3095.4 210.396C3099.63 213.395 3102.1 215.27 3102.81 216.019C3103.51 216.769 3104.92 218.644 3107.04 221.643C3109.16 224.642 3110.22 228.765 3110.22 234.014C3110.22 239.262 3110.22 244.885 3110.22 250.883C3110.22 256.881 3110.57 266.628 3111.28 280.124C3111.28 286.871 3111.28 305.241 3111.28 335.231C3111.28 365.221 3110.92 392.587 3110.22 417.329V602.894H3174.79H3209.72Z" fill="black"/>
<path d="M3424.6 203.648C3427.42 203.648 3432.72 203.648 3440.48 203.648C3448.24 203.648 3454.24 203.273 3458.47 202.523C3495.17 202.523 3513.52 214.145 3513.52 237.387V243.01L3523.04 236.262C3561.86 210.021 3605.26 196.9 3653.24 196.9C3703.35 196.9 3748.86 219.018 3789.79 263.254C3830.72 307.489 3851.19 367.845 3851.19 444.32C3851.19 497.553 3839.54 544.038 3816.25 583.775C3792.97 623.512 3765.8 652.003 3734.75 669.248C3703.7 686.492 3671.59 695.114 3638.42 695.114C3617.25 695.114 3596.43 690.991 3575.97 682.743C3555.5 674.496 3539.98 666.623 3529.39 659.126L3514.57 646.755C3513.87 646.755 3513.52 680.869 3513.52 749.097V852.563H3580.2C3590.08 859.311 3596.43 865.309 3599.26 870.558C3602.08 875.806 3603.49 884.053 3603.49 895.3C3603.49 917.043 3595.73 930.913 3580.2 936.911H3358.97C3342.74 931.663 3334.62 917.792 3334.62 895.3C3334.62 884.053 3336.04 875.806 3338.86 870.558C3341.68 865.309 3348.39 859.311 3358.97 852.563H3424.6V289.12H3391.79L3358.97 287.996C3342.74 282.747 3334.62 268.877 3334.62 246.384C3334.62 235.138 3336.04 226.89 3338.86 221.642C3341.68 216.394 3348.39 210.396 3358.97 203.648H3424.6ZM3763.33 446.57C3763.33 406.083 3752.04 368.595 3729.46 334.106C3706.87 299.617 3673.71 282.373 3629.95 282.373C3610.19 282.373 3589.38 288.745 3567.5 301.491C3545.62 314.237 3529.04 331.857 3517.75 354.349L3513.52 362.222V500.552C3524.81 532.792 3538.92 559.033 3555.86 579.277C3572.79 599.52 3595.73 609.642 3624.66 609.642C3661.36 609.642 3693.47 594.272 3720.99 563.532C3748.51 532.792 3762.62 493.804 3763.33 446.57Z" fill="black"/>
<path d="M4019.49 344.228C4004.67 344.228 3991.97 338.604 3981.38 327.358C3970.8 316.112 3965.15 301.866 3964.45 284.622C3964.45 224.641 4012.79 194.651 4109.47 194.651C4149.69 194.651 4172.63 195.026 4178.27 195.776C4225.55 204.773 4263.31 222.767 4291.53 249.758C4319.76 276.749 4336.34 308.239 4341.28 344.228C4341.99 347.976 4342.34 391.462 4342.34 474.685V597.271C4352.93 598.77 4364.92 599.895 4378.33 600.645C4391.74 601.395 4401.27 602.144 4406.91 602.894C4412.56 603.644 4418.56 605.143 4424.91 607.393C4431.26 609.642 4435.49 614.14 4437.61 620.888C4439.73 627.636 4440.79 635.883 4440.79 645.63C4440.79 665.874 4434.43 678.994 4421.73 684.993C4418.91 686.492 4404.8 687.242 4379.39 687.242C4351.16 687.242 4329.99 685.742 4315.88 682.743C4301.77 679.744 4292.24 676.37 4287.3 672.622C4282.36 668.873 4273.89 660.625 4261.89 647.88L4251.31 654.627C4208.26 681.619 4158.86 695.114 4103.12 695.114C4053.72 695.114 4013.85 678.245 3983.5 644.506C3953.16 610.767 3937.63 572.529 3936.93 529.793C3936.93 499.053 3947.86 472.436 3969.74 449.943C3991.62 427.451 4019.49 410.956 4053.36 400.459C4087.24 389.963 4120.4 381.716 4152.87 375.717C4185.33 369.719 4217.08 367.095 4248.13 367.845H4253.43V362.222C4253.43 343.478 4245.66 326.608 4230.14 311.613C4214.61 296.618 4194.15 286.496 4168.74 281.248C4162.39 280.498 4147.22 280.123 4123.23 280.123C4098.53 280.123 4084.77 280.498 4081.94 281.248H4075.59L4074.54 285.747C4074.54 289.495 4074.54 291.745 4074.54 292.494C4074.54 293.244 4073.83 295.868 4072.42 300.367C4071.01 304.865 4070.3 307.864 4070.3 309.364C4070.3 310.863 4068.89 313.488 4066.07 317.236C4063.24 320.985 4061.48 323.984 4060.77 326.233C4060.07 328.483 4057.6 330.732 4053.36 332.981C4049.13 335.231 4046.31 337.105 4044.9 338.604C4043.49 340.104 4039.6 341.229 4033.25 341.978C4026.9 342.728 4022.31 343.478 4019.49 344.228ZM4025.84 530.917C4025.84 549.661 4034.66 567.281 4052.31 583.775C4069.95 600.27 4093.59 608.892 4123.23 609.642C4154.98 609.642 4182.51 603.269 4205.79 590.523C4229.08 577.777 4243.9 560.533 4250.25 538.79C4251.66 534.291 4252.72 518.546 4253.43 491.555V451.068H4244.96C4186.39 452.568 4135.22 460.44 4091.47 474.685C4047.72 488.931 4025.84 507.675 4025.84 530.917Z" fill="black"/>
<path d="M4495.83 43.95C4495.83 22.207 4503.59 8.33653 4519.12 2.33847H4522.29C4524.41 2.33847 4527.23 2.33847 4530.76 2.33847C4534.29 2.33847 4538.88 2.33847 4544.52 2.33847C4550.17 2.33847 4555.81 2.33847 4561.46 2.33847C4567.1 2.33847 4574.16 1.96359 4582.63 1.21383C4591.1 0.464073 4598.86 0.464073 4605.92 1.21383C4612.97 1.96359 4621.44 1.96359 4631.32 1.21383H4740.35C4753.76 10.9607 4761.52 20.3327 4763.64 29.3297V602.894H4920.3C4930.18 609.642 4936.53 615.64 4939.35 620.889C4942.17 626.137 4943.59 634.384 4943.59 645.631C4943.59 666.624 4935.82 680.494 4920.3 687.242H4519.12C4503.59 681.244 4495.83 669.623 4495.83 652.378V645.631C4495.83 633.635 4496.89 625.387 4499 620.889C4501.12 616.39 4507.83 610.392 4519.12 602.894H4674.72V86.6862H4596.39L4519.12 85.5616C4503.59 78.8138 4495.83 67.1925 4495.83 50.6978V43.95Z" fill="black"/>
<path d="M5647.51 203.648C5650.33 203.648 5655.62 203.648 5663.38 203.648C5671.15 203.648 5677.14 203.273 5681.38 202.523C5718.07 202.523 5736.42 214.145 5736.42 237.387V243.01L5745.95 236.262C5784.76 210.021 5828.16 196.9 5876.15 196.9C5926.25 196.9 5971.77 219.018 6012.7 263.254C6053.63 307.489 6074.09 367.845 6074.09 444.32C6074.09 497.553 6062.45 544.038 6039.16 583.775C6015.87 623.512 5988.7 652.003 5957.65 669.248C5926.6 686.492 5894.5 695.114 5861.33 695.114C5840.16 695.114 5819.34 690.991 5798.88 682.743C5778.41 674.496 5762.89 666.623 5752.3 659.126L5737.48 646.755C5736.78 646.755 5736.42 680.869 5736.42 749.097V852.563H5803.11C5812.99 859.311 5819.34 865.309 5822.16 870.558C5824.99 875.806 5826.4 884.053 5826.4 895.3C5826.4 917.043 5818.63 930.913 5803.11 936.911H5581.88C5565.65 931.663 5557.53 917.792 5557.53 895.3C5557.53 884.053 5558.94 875.806 5561.77 870.558C5564.59 865.309 5571.29 859.311 5581.88 852.563H5647.51V289.12H5614.69L5581.88 287.996C5565.65 282.747 5557.53 268.877 5557.53 246.384C5557.53 235.138 5558.94 226.89 5561.77 221.642C5564.59 216.394 5571.29 210.396 5581.88 203.648H5647.51ZM5986.23 446.57C5986.23 406.083 5974.94 368.595 5952.36 334.106C5929.78 299.617 5896.61 282.373 5852.86 282.373C5833.1 282.373 5812.28 288.745 5790.41 301.491C5768.53 314.237 5751.95 331.857 5740.66 354.349L5736.42 362.222V500.552C5747.71 532.792 5761.83 559.033 5778.76 579.277C5795.7 599.52 5818.63 609.642 5847.57 609.642C5884.26 609.642 5916.37 594.272 5943.89 563.532C5971.42 532.792 5985.53 493.804 5986.23 446.57Z" fill="black"/>
<path d="M6164.07 445.445C6164.07 368.97 6187.36 307.864 6233.93 262.129C6280.51 216.394 6330.96 193.526 6385.3 193.526C6443.17 193.526 6494.68 216.769 6539.84 263.254C6585.01 309.739 6607.94 370.469 6608.65 445.445C6608.65 516.672 6586.77 575.903 6543.02 623.138C6499.27 670.372 6447.05 694.365 6386.36 695.114C6325.67 695.114 6273.45 671.122 6229.7 623.138C6185.94 575.153 6164.07 515.922 6164.07 445.445ZM6519.73 435.323C6519.73 393.337 6506.68 356.974 6480.57 326.233C6454.46 295.493 6422.7 279.748 6385.3 278.999C6351.43 278.999 6321.08 293.619 6294.27 322.86C6267.45 352.1 6253.69 389.588 6252.98 435.323C6252.98 485.557 6266.39 527.169 6293.21 560.158C6320.02 593.147 6351.07 609.642 6386.36 609.642C6421.64 609.642 6452.69 593.147 6479.51 560.158C6506.32 527.169 6519.73 485.557 6519.73 435.323Z" fill="black"/>
<path d="M6878.57 83.3122C6878.57 83.3122 6878.57 75.4398 6878.57 59.6949C6878.57 43.95 6884.22 30.0794 6895.51 18.0833C6906.8 6.08718 6921.62 0.0891215 6939.97 0.0891215C6956.2 0.0891215 6970.31 5.71231 6982.31 16.9587C6994.31 28.205 7000.3 42.0756 7000.3 58.5702C7000.3 75.0649 6994.31 88.9354 6982.31 100.182C6970.31 111.428 6956.2 117.426 6939.97 118.176C6922.33 118.176 6907.86 112.553 6896.57 101.306L6878.57 83.3122ZM7099.81 602.894C7120.98 602.894 7135.09 605.519 7142.15 610.767C7149.2 616.015 7153.09 627.636 7153.79 645.631C7153.79 652.378 7153.79 656.877 7153.79 659.126C7153.79 661.376 7153.09 664.375 7151.67 668.123C7150.26 671.872 7147.79 675.246 7144.26 678.245C7140.74 681.244 7136.15 684.243 7130.5 687.242H6764.25C6748.73 681.994 6740.97 669.998 6740.97 651.254V645.631C6740.97 639.633 6740.97 635.509 6740.97 633.26C6740.97 631.01 6741.67 627.636 6743.08 623.138C6744.49 618.639 6746.96 614.891 6750.49 611.892C6754.02 608.892 6758.61 605.893 6764.25 602.894H6911.39V289.121H6841.53L6772.72 287.996C6757.2 282.748 6749.43 268.877 6749.43 246.385C6749.43 227.641 6753.31 215.645 6761.08 210.396C6768.84 205.148 6785.42 202.524 6810.83 202.524C6815.77 202.524 6825.29 202.524 6839.41 202.524C6853.52 202.524 6865.87 202.899 6876.46 203.648H6977.02C6978.43 205.148 6981.25 207.397 6985.49 210.396C6989.72 213.395 6992.19 215.27 6992.89 216.019C6993.6 216.769 6995.01 218.644 6997.13 221.643C6999.25 224.642 7000.3 228.765 7000.3 234.014C7000.3 239.262 7000.3 244.885 7000.3 250.883C7000.3 256.881 7000.66 266.628 7001.36 280.124C7001.36 286.871 7001.36 305.241 7001.36 335.231C7001.36 365.221 7001.01 392.587 7000.3 417.329V602.894H7064.87H7099.81Z" fill="black"/>
<path d="M7314.69 203.648C7318.22 203.648 7323.86 203.648 7331.62 203.648C7339.39 203.648 7345.38 203.274 7349.62 202.524C7385.61 202.524 7403.6 214.895 7403.6 239.637C7403.6 243.386 7404.31 245.26 7405.72 245.26C7406.43 245.26 7411.72 241.511 7421.6 234.014C7431.48 226.516 7446.65 218.644 7467.11 210.396C7487.58 202.149 7510.51 198.025 7535.92 198.025C7567.67 198.025 7593.43 202.899 7613.19 212.646C7641.42 228.39 7659.77 250.133 7668.23 277.874C7676.7 305.615 7681.29 343.103 7682 390.338C7682 396.336 7682 406.083 7682 419.579C7682 433.074 7681.64 443.571 7680.94 451.068V465.689V602.894H7747.62C7757.5 609.642 7763.85 615.64 7766.68 620.889C7769.5 626.137 7770.91 634.384 7770.91 645.631C7770.91 667.374 7763.15 681.244 7747.62 687.242H7546.5C7530.98 681.244 7523.22 669.623 7523.22 652.378V645.631V637.758C7523.22 622.763 7529.21 612.266 7541.21 606.268C7545.45 604.019 7554.62 602.894 7568.73 602.894H7592.02V476.935C7592.02 464.939 7592.02 449.194 7592.02 429.7C7592.02 410.207 7592.37 396.711 7593.08 389.213C7593.08 347.977 7589.2 319.861 7581.44 304.866C7573.67 289.871 7554.97 282.373 7525.33 282.373C7500.63 282.373 7477.35 289.871 7455.47 304.866C7433.59 319.861 7417.36 344.978 7406.78 380.216L7404.66 391.463L7403.6 497.179V602.894H7470.29C7480.17 609.642 7486.52 615.64 7489.34 620.889C7492.17 626.137 7493.58 634.384 7493.58 645.631C7493.58 667.374 7485.82 681.244 7470.29 687.242H7249.06C7232.83 681.994 7224.71 668.123 7224.71 645.631C7224.71 634.384 7226.12 626.137 7228.95 620.889C7231.77 615.64 7238.47 609.642 7249.06 602.894H7314.69V289.121H7281.87L7249.06 287.996C7232.83 282.748 7224.71 268.877 7224.71 246.385C7224.71 235.138 7226.12 226.891 7228.95 221.643C7231.77 216.394 7238.47 210.396 7249.06 203.648H7314.69Z" fill="black"/>
<path d="M7802.67 244.135C7803.37 236.637 7803.73 231.764 7803.73 229.515C7803.73 227.265 7804.79 224.266 7806.9 220.518C7809.02 216.769 7811.14 214.145 7813.25 212.645C7815.37 211.146 7819.96 208.147 7827.01 203.648H7929.69V147.416L7930.75 90.0597C7936.4 78.8133 7941.69 72.0655 7946.63 69.8162C7951.57 67.5669 7959.68 66.0674 7970.97 65.3177H7976.27C7996.73 65.3177 8010.14 72.8152 8016.49 87.8104C8017.9 91.5592 8018.61 111.803 8018.61 148.541V203.648H8204.91C8205.61 204.398 8207.73 205.897 8211.26 208.147C8214.79 210.396 8217.26 212.27 8218.67 213.77C8220.08 215.269 8221.49 217.519 8222.9 220.518C8224.31 223.517 8225.73 226.89 8227.14 230.639C8228.55 234.388 8228.9 239.636 8228.2 246.384C8228.2 250.883 8228.2 255.006 8228.2 258.755C8228.2 262.504 8227.14 265.503 8225.02 267.752C8222.9 270.002 8221.84 272.251 8221.84 274.5C8221.84 276.749 8220.43 278.624 8217.61 280.123C8214.79 281.623 8213.38 282.747 8213.38 283.497C8213.38 284.247 8211.61 284.997 8208.08 285.746L8204.91 287.996L8111.76 289.12H8018.61V408.332C8018.61 417.329 8018.61 430.45 8018.61 447.694C8018.61 464.939 8018.25 478.059 8017.55 487.056C8017.55 526.794 8022.14 557.159 8031.31 578.152C8040.48 599.145 8059.54 609.642 8088.47 609.642C8130.11 609.642 8154.8 580.026 8162.57 520.796C8163.27 507.3 8166.8 497.928 8173.15 492.68C8178.8 486.682 8190.09 483.683 8207.03 483.683H8215.49C8231.72 483.683 8242.66 489.681 8248.31 501.677C8249.72 505.426 8250.42 512.173 8250.42 521.92C8250.42 569.905 8232.78 610.767 8197.5 644.506C8162.21 678.245 8121.28 695.114 8074.71 695.114C8035.19 695.114 8002.38 681.993 7976.27 655.752C7950.16 629.51 7934.98 592.397 7930.75 544.413C7930.04 539.914 7929.69 495.304 7929.69 410.581V289.12H7877.82H7852.42C7833.37 289.12 7820.31 286.496 7813.25 281.248C7806.2 276 7802.67 263.629 7802.67 244.135Z" fill="black"/>
</svg>
